<?xml version="1.0" encoding="UTF-8"?>
<svg width="1000" height="700" xmlns="http://www.w3.org/2000/svg">
  <style>
    .table {
      fill: #ffffff;
      stroke: #333333;
      stroke-width: 2;
    }
    .table-header {
      font-family: Arial, sans-serif;
      font-size: 16px;
      font-weight: bold;
      fill: #ffffff;
    }
    .table-content {
      font-family: Arial, sans-serif;
      font-size: 12px;
      fill: #333333;
    }
    .pk {
      font-weight: bold;
    }
    .fk {
      font-style: italic;
      fill: #0066cc;
    }
    .relationship {
      stroke-width: 2;
      fill: none;
      marker-end: url(#arrowhead);
    }
    .teachers-color { fill: #6366f1; }
    .students-color { fill: #f472b6; }
    .streams-color { fill: #10b981; }
    .subjects-color { fill: #f59e0b; }
    .enrollments-color { fill: #8b5cf6; }
    .attendance-color { fill: #ef4444; }
  </style>

  <defs>
    <marker id="arrowhead" markerWidth="10" markerHeight="7" refX="9" refY="3.5" orient="auto">
      <polygon points="0 0, 10 3.5, 0 7" fill="#333333" />
    </marker>
  </defs>

  <!-- Teachers Table -->
  <rect x="50" y="50" width="200" height="180" rx="5" class="table" />
  <rect x="50" y="50" width="200" height="30" rx="5" class="teachers-color" />
  <text x="150" y="70" text-anchor="middle" class="table-header">teachers</text>
  <text x="60" y="100" class="table-content pk">id (PK)</text>
  <text x="60" y="120" class="table-content">name</text>
  <text x="60" y="140" class="table-content">email</text>
  <text x="60" y="160" class="table-content">mobile_number</text>
  <text x="60" y="180" class="table-content">password</text>
  <text x="60" y="200" class="table-content">created_at</text>
  <text x="60" y="220" class="table-content">updated_at</text>

  <!-- Students Table -->
  <rect x="50" y="350" width="200" height="200" rx="5" class="table" />
  <rect x="50" y="350" width="200" height="30" rx="5" class="students-color" />
  <text x="150" y="370" text-anchor="middle" class="table-header">students</text>
  <text x="60" y="400" class="table-content pk">id (PK)</text>
  <text x="60" y="420" class="table-content">name</text>
  <text x="60" y="440" class="table-content">email</text>
  <text x="60" y="460" class="table-content">mobile_number</text>
  <text x="60" y="480" class="table-content">registration_number</text>
  <text x="60" y="500" class="table-content">password</text>
  <text x="60" y="520" class="table-content">created_at</text>
  <text x="60" y="540" class="table-content">updated_at</text>

  <!-- Streams Table -->
  <rect x="350" y="50" width="200" height="180" rx="5" class="table" />
  <rect x="350" y="50" width="200" height="30" rx="5" class="streams-color" />
  <text x="450" y="70" text-anchor="middle" class="table-header">streams</text>
  <text x="360" y="100" class="table-content pk">id (PK)</text>
  <text x="360" y="120" class="table-content">name</text>
  <text x="360" y="140" class="table-content">description</text>
  <text x="360" y="160" class="table-content fk">teacher_id (FK)</text>
  <text x="360" y="180" class="table-content">created_at</text>
  <text x="360" y="200" class="table-content">updated_at</text>

  <!-- Subjects Table -->
  <rect x="650" y="50" width="200" height="180" rx="5" class="table" />
  <rect x="650" y="50" width="200" height="30" rx="5" class="subjects-color" />
  <text x="750" y="70" text-anchor="middle" class="table-header">subjects</text>
  <text x="660" y="100" class="table-content pk">id (PK)</text>
  <text x="660" y="120" class="table-content">name</text>
  <text x="660" y="140" class="table-content">description</text>
  <text x="660" y="160" class="table-content fk">stream_id (FK)</text>
  <text x="660" y="180" class="table-content">created_at</text>
  <text x="660" y="200" class="table-content">updated_at</text>

  <!-- Subject Enrollments Table -->
  <rect x="350" y="350" width="200" height="140" rx="5" class="table" />
  <rect x="350" y="350" width="200" height="30" rx="5" class="enrollments-color" />
  <text x="450" y="370" text-anchor="middle" class="table-header">subject_enrollments</text>
  <text x="360" y="400" class="table-content pk">id (PK)</text>
  <text x="360" y="420" class="table-content fk">student_id (FK)</text>
  <text x="360" y="440" class="table-content fk">subject_id (FK)</text>
  <text x="360" y="460" class="table-content">created_at</text>

  <!-- Attendance Table -->
  <rect x="650" y="350" width="200" height="180" rx="5" class="table" />
  <rect x="650" y="350" width="200" height="30" rx="5" class="attendance-color" />
  <text x="750" y="370" text-anchor="middle" class="table-header">attendance</text>
  <text x="660" y="400" class="table-content pk">id (PK)</text>
  <text x="660" y="420" class="table-content fk">student_id (FK)</text>
  <text x="660" y="440" class="table-content fk">subject_id (FK)</text>
  <text x="660" y="460" class="table-content">status</text>
  <text x="660" y="480" class="table-content">date</text>
  <text x="660" y="500" class="table-content">created_at</text>

  <!-- Relationships -->
  <!-- Teacher to Stream -->
  <path d="M 250 140 L 350 140" class="relationship" stroke="#6366f1" />

  <!-- Stream to Subject -->
  <path d="M 550 140 L 650 140" class="relationship" stroke="#10b981" />

  <!-- Student to Subject Enrollment -->
  <path d="M 250 420 L 350 420" class="relationship" stroke="#f472b6" />

  <!-- Subject to Subject Enrollment -->
  <path d="M 750 230 L 750 300 L 450 300 L 450 350" class="relationship" stroke="#f59e0b" />

  <!-- Student to Attendance -->
  <path d="M 250 480 L 300 480 L 300 510 L 600 510 L 600 480 L 650 480" class="relationship" stroke="#f472b6" />

  <!-- Subject to Attendance -->
  <path d="M 850 140 L 900 140 L 900 450 L 850 450" class="relationship" stroke="#f59e0b" />

  <!-- Title and Legend -->
  <text x="500" y="560" text-anchor="middle" font-family="Arial, sans-serif" font-size="20" font-weight="bold">Attendance System Database Schema</text>

  <!-- Legend Box -->
  <rect x="300" y="580" width="400" height="100" rx="5" fill="#f8f9fa" stroke="#333333" stroke-width="1" />
  <text x="500" y="600" text-anchor="middle" font-family="Arial, sans-serif" font-size="14" font-weight="bold">Legend</text>

  <!-- Legend Items -->
  <rect x="320" y="610" width="15" height="15" class="teachers-color" />
  <text x="345" y="622" font-family="Arial, sans-serif" font-size="12">Teachers</text>

  <rect x="320" y="635" width="15" height="15" class="students-color" />
  <text x="345" y="647" font-family="Arial, sans-serif" font-size="12">Students</text>

  <rect x="320" y="660" width="15" height="15" class="streams-color" />
  <text x="345" y="672" font-family="Arial, sans-serif" font-size="12">Streams</text>

  <rect x="480" y="610" width="15" height="15" class="subjects-color" />
  <text x="505" y="622" font-family="Arial, sans-serif" font-size="12">Subjects</text>

  <rect x="480" y="635" width="15" height="15" class="enrollments-color" />
  <text x="505" y="647" font-family="Arial, sans-serif" font-size="12">Subject Enrollments</text>

  <rect x="480" y="660" width="15" height="15" class="attendance-color" />
  <text x="505" y="672" font-family="Arial, sans-serif" font-size="12">Attendance</text>
</svg>
